<svg id="Layer_1" enable-background="new 0 0 256 256" height="512" viewBox="0 0 256 256" width="512" xmlns="http://www.w3.org/2000/svg"><g><g><g><g><g><path d="m177.452 55.004c-2.179 0-3.951 1.668-4.156 3.794h-6.588c-.854-9.071-4.439-17.347-9.933-23.99l4.655-4.655c.772.636 1.708.973 2.654.973 1.074 0 2.148-.41 2.967-1.229 1.639-1.639 1.639-4.296 0-5.935-.091-.091-2.683-2.683-2.683-2.683-.347-.347 1.114 1.114-2.683-2.683-1.639-1.639-4.296-1.639-5.935 0-1.542 1.542-1.615 3.973-.257 5.622l-4.655 4.655c-6.643-5.494-14.919-9.079-23.99-9.933v-6.587c2.126-.206 3.794-1.977 3.794-4.156 0-2.318-1.879-4.197-4.197-4.197h-7.589c-2.318 0-4.197 1.879-4.197 4.197 0 2.18 1.668 3.951 3.795 4.156v6.587c-9.071.854-17.347 4.439-23.99 9.933l-4.655-4.655c1.358-1.649 1.285-4.08-.256-5.621-1.638-1.639-4.296-1.639-5.935 0l-2.682 2.682c0 .001-2.683 2.683-2.684 2.684-1.639 1.639-1.639 4.296 0 5.935.82.82 1.893 1.229 2.968 1.229.946 0 1.882-.337 2.654-.973l4.655 4.655c-5.494 6.643-9.079 14.919-9.933 23.99h-6.587c-.205-2.126-1.976-3.794-4.156-3.794-2.318 0-4.197 1.879-4.197 4.197v7.589c0 2.318 1.879 4.197 4.197 4.197 2.18 0 3.951-1.668 4.156-3.794h6.587c.854 9.071 4.439 17.347 9.933 23.99l-4.655 4.655c-1.648-1.358-4.08-1.286-5.622.256-1.639 1.639-1.639 4.296 0 5.935.002.002 2.681 2.681 2.683 2.683 0 0 .001 0 .001.001 2.694 2.694 3.486 3.911 5.649 3.911 1.074 0 2.148-.41 2.968-1.229 1.541-1.541 1.614-3.973.256-5.621l4.655-4.656c6.643 5.494 14.919 9.079 23.99 9.933v6.587c-5.294.512-4.877 8.353.402 8.353h7.589c2.318 0 4.197-1.879 4.197-4.197 0-2.18-1.668-3.951-3.794-4.156v-6.588c9.071-.854 17.347-4.439 23.99-9.933l4.655 4.655c-1.358 1.649-1.285 4.08.257 5.622.819.819 1.894 1.229 2.967 1.229 2.161 0 2.953-1.215 5.65-3.912h.001s2.592-2.592 2.683-2.683c1.639-1.639 1.639-4.296 0-5.935-1.541-1.541-3.972-1.614-5.621-.256l-4.655-4.655c5.494-6.643 9.079-14.919 9.933-23.99h6.587c.206 2.126 1.977 3.794 4.156 3.794 2.317 0 4.197-1.879 4.197-4.197v-7.589c.001-2.318-1.878-4.197-4.196-4.197z" fill="#6bdddd"/></g></g><g><g><circle cx="122.654" cy="62.995" fill="#4671c6" r="33.719"/></g></g><g><g><g><circle cx="116.155" cy="55.334" fill="#e0ebfc" r="12.472"/></g></g><g><g><circle cx="134.687" cy="76.19" fill="#e0ebfc" r="6.939"/></g></g></g><g><g><path d="m146.966 56.032c-1.475 1.475-3.866 1.475-5.341 0l-5.341-5.341c-1.475-1.475-1.475-3.866 0-5.341 1.475-1.475 3.866-1.475 5.341 0l5.341 5.341c1.475 1.475 1.475 3.866 0 5.341z" fill="#a4c9ff"/></g></g><g><g><path d="m113.168 82.74c-1.475 1.475-3.866 1.475-5.341 0l-5.341-5.341c-1.475-1.475-1.475-3.866 0-5.341 1.475-1.475 3.866-1.475 5.341 0l5.341 5.341c1.475 1.475 1.475 3.866 0 5.341z" fill="#f9a7a7"/></g></g><g><g><path d="m126.448 123.991h-7.589c-3.86 0-6.022-2.968-6.164-5.899-.117-2.419 1.144-4.996 3.762-6.022v-3.235c-7.963-1.064-15.446-4.163-21.837-9.042l-2.305 2.305c.93 2.254.463 4.902-1.345 6.71-1.172 1.171-2.729 1.815-4.383 1.815-2.675 0-3.983-1.344-5.965-3.379-.33-.339-.691-.711-1.098-1.117-.005-.004-.009-.009-.014-.014h-.001c-.114-.116-2.559-2.559-2.666-2.667-1.175-1.174-1.819-2.73-1.819-4.385s.645-3.211 1.815-4.382c1.809-1.809 4.455-2.277 6.711-1.345l2.305-2.305c-4.878-6.391-7.978-13.875-9.042-21.837h-3.263c-.936 2.252-3.139 3.794-5.696 3.794-3.417 0-6.196-2.78-6.196-6.197v-7.589c0-3.417 2.779-6.197 6.196-6.197 2.558 0 4.761 1.542 5.696 3.794h3.263c1.064-7.963 4.163-15.447 9.042-21.837l-2.304-2.304c-.74.307-1.532.469-2.33.469-1.656 0-3.212-.645-4.383-1.816-1.17-1.169-1.814-2.726-1.814-4.381s.645-3.211 1.815-4.382l5.366-5.365c1.171-1.17 2.727-1.815 4.382-1.815h.001c1.655 0 3.211.645 4.381 1.815 1.808 1.808 2.275 4.456 1.345 6.71l2.304 2.305c6.391-4.878 13.875-7.977 21.838-9.042v-3.263c-2.252-.937-3.794-3.139-3.794-5.696 0-3.417 2.779-6.197 6.196-6.197h7.589c3.417 0 6.196 2.78 6.196 6.197 0 2.557-1.542 4.76-3.794 5.696v3.263c7.963 1.064 15.446 4.163 21.838 9.042l2.304-2.305c-.93-2.254-.463-4.902 1.346-6.71 1.171-1.17 2.727-1.815 4.382-1.815h.001c1.655 0 3.211.645 4.381 1.815l2.677 2.676c.002.001.004.003.006.005.004.004.008.008.012.012l2.671 2.672c2.416 2.416 2.416 6.347 0 8.763-1.17 1.17-2.727 1.815-4.382 1.815-.798 0-1.59-.162-2.33-.469l-2.303 2.304c4.878 6.391 7.978 13.875 9.042 21.837h3.262c.937-2.252 3.14-3.794 5.696-3.794 3.417 0 6.197 2.78 6.197 6.197v7.589c0 3.417-2.78 6.197-6.197 6.197-2.557 0-4.76-1.542-5.696-3.794h-3.262c-1.064 7.961-4.164 15.446-9.042 21.837l2.304 2.305c2.253-.93 4.903-.463 6.711 1.345 2.416 2.416 2.416 6.347 0 8.763l-2.683 2.683c-.405.406-.767.777-1.097 1.115-1.983 2.037-3.294 3.382-5.968 3.382-1.656 0-3.212-.645-4.382-1.814-1.808-1.809-2.275-4.457-1.345-6.711l-2.305-2.305c-6.392 4.878-13.875 7.977-21.838 9.042v3.263c2.252.937 3.794 3.139 3.794 5.696.002 3.419-2.778 6.199-6.195 6.199zm-31.981-28.874c.451 0 .903.151 1.274.459 6.541 5.409 14.461 8.688 22.903 9.482 1.027.097 1.813.959 1.813 1.991v6.587c0 1.03-.782 1.892-1.808 1.991-1.96.189-1.976 1.925-1.959 2.271.017.349.2 2.092 2.169 2.092h7.589c1.211 0 2.196-.985 2.196-2.197 0-1.125-.854-2.056-1.986-2.166-1.025-.099-1.808-.961-1.808-1.991v-6.588c0-1.032.785-1.895 1.813-1.991 8.442-.794 16.362-4.073 22.903-9.482.793-.657 1.957-.604 2.688.127l4.655 4.655c.729.728.784 1.891.13 2.686-.724.878-.669 2.141.127 2.937.414.414.966.642 1.553.642.919 0 1.279-.301 3.103-2.174.34-.35.714-.733 1.133-1.152.003-.003.006-.006.01-.01.092-.091 2.085-2.084 2.57-2.57l.104-.104c.856-.856.856-2.25 0-3.107-.795-.794-2.056-.85-2.938-.126-.794.654-1.957.598-2.685-.13l-4.654-4.655c-.729-.729-.784-1.894-.127-2.688 5.409-6.542 8.688-14.462 9.482-22.903.097-1.027.959-1.813 1.991-1.813h6.587c1.03 0 1.892.782 1.99 1.807.11 1.133 1.041 1.987 2.166 1.987 1.212 0 2.197-.985 2.197-2.197v-7.589c0-1.211-.985-2.197-2.197-2.197-1.125 0-2.056.854-2.166 1.987-.099 1.025-.96 1.807-1.99 1.807h-6.587c-1.032 0-1.895-.785-1.991-1.813-.794-8.441-4.073-16.361-9.482-22.903-.657-.795-.603-1.959.127-2.688l4.654-4.655c.729-.729 1.892-.783 2.686-.13.892.735 2.177.633 2.937-.126.856-.856.856-2.25 0-3.107l-2.683-2.683c-.056-.056-.108-.115-.158-.178-.101-.088-.203-.183-.306-.286l-2.219-2.219c-.415-.415-.967-.644-1.554-.644-.587 0-1.139.229-1.554.644-.795.795-.85 2.058-.126 2.935.654.795.599 1.958-.13 2.686l-4.655 4.655c-.73.73-1.896.785-2.688.127-6.541-5.409-14.461-8.688-22.903-9.482-1.027-.097-1.813-.959-1.813-1.991v-6.587c0-1.03.782-1.892 1.808-1.991 1.133-.109 1.986-1.041 1.986-2.166 0-1.211-.985-2.197-2.196-2.197h-7.589c-1.211 0-2.196.985-2.196 2.197 0 1.125.854 2.056 1.986 2.166 1.025.099 1.808.961 1.808 1.991v6.587c0 1.032-.785 1.895-1.813 1.991-8.442.794-16.362 4.073-22.903 9.482-.794.656-1.959.603-2.688-.127l-4.655-4.655c-.729-.728-.784-1.891-.13-2.686.724-.878.67-2.14-.125-2.936-.415-.415-.967-.644-1.554-.644-.587 0-1.139.229-1.554.644l-5.366 5.365c-.415.416-.644.967-.644 1.554 0 .586.229 1.138.644 1.553.76.761 2.045.862 2.937.127.795-.653 1.956-.599 2.686.13l4.655 4.655c.729.729.784 1.894.127 2.688-5.409 6.541-8.688 14.46-9.482 22.903-.097 1.027-.959 1.813-1.991 1.813h-6.588c-1.03 0-1.892-.783-1.991-1.808-.108-1.132-1.04-1.986-2.165-1.986-1.211 0-2.196.985-2.196 2.197v7.589c0 1.211.985 2.197 2.196 2.197 1.125 0 2.057-.854 2.165-1.986.1-1.025.961-1.808 1.991-1.808h6.587c1.032 0 1.895.785 1.991 1.813.794 8.442 4.073 16.362 9.482 22.903.657.795.603 1.959-.127 2.688l-4.655 4.655c-.729.729-1.894.784-2.686.129-.879-.724-2.141-.668-2.937.126-.415.416-.644.967-.644 1.554 0 .586.229 1.138.644 1.553 1.551 1.55 2.292 2.292 2.669 2.701l.016-.016c.42.42.795.805 1.136 1.155 1.82 1.87 2.18 2.17 3.099 2.17.587 0 1.14-.229 1.556-.644.794-.794.848-2.056.124-2.934-.654-.795-.599-1.958.13-2.686l4.655-4.656c.388-.386.9-.583 1.414-.583z" fill="#3762cc"/></g></g></g><g><g><g><path d="m101.528 146.99c-1.725 0-3.127 1.321-3.29 3.004h-5.215c-.676-7.18-3.514-13.731-7.863-18.99l3.685-3.685c.611.503 1.352.77 2.101.77.85 0 1.701-.324 2.349-.973 1.298-1.297 1.298-3.401 0-4.698-3.194-3.194-1.053-1.053-4.247-4.247-1.297-1.297-3.401-1.298-4.698 0-1.221 1.22-1.278 3.145-.203 4.45l-3.685 3.685c-5.259-4.349-11.81-7.187-18.99-7.863v-5.215c1.683-.163 3.003-1.564 3.003-3.29 0-1.835-1.487-3.322-3.322-3.322h-6.007c-1.835 0-3.322 1.487-3.322 3.322 0 1.726 1.321 3.128 3.004 3.29v5.215c-7.18.676-13.732 3.514-18.99 7.863l-3.685-3.685c1.075-1.305 1.018-3.23-.202-4.45-1.297-1.297-3.401-1.298-4.698 0-3.262 3.262-2.719 2.719-4.248 4.247-1.298 1.297-1.298 3.401 0 4.698.649.649 1.499.973 2.349.973.749 0 1.49-.267 2.101-.771l3.685 3.685c-4.349 5.259-7.187 11.81-7.863 18.99h-5.215c-.163-1.683-1.564-3.004-3.29-3.004-1.835 0-3.322 1.488-3.322 3.322v6.007c0 1.835 1.487 3.322 3.322 3.322 1.726 0 3.128-1.32 3.29-3.004h5.214c.676 7.18 3.514 13.732 7.863 18.991l-3.685 3.685c-1.305-1.075-3.23-1.018-4.45.203-1.297 1.297-1.297 3.401 0 4.698.001.001 2.123 2.122 2.124 2.124.001 0 2.123 2.123 2.124 2.124.648.649 1.499.973 2.349.973s1.701-.324 2.349-.973c1.22-1.22 1.277-3.145.202-4.45l3.685-3.685c5.259 4.349 11.81 7.187 18.99 7.863v5.215c-1.683.163-3.004 1.564-3.004 3.29 0 1.835 1.487 3.322 3.322 3.322h6.007c1.835 0 3.322-1.487 3.322-3.322 0-1.725-1.32-3.127-3.003-3.29v-5.215c7.18-.676 13.731-3.514 18.99-7.863l3.685 3.685c-1.075 1.305-1.017 3.23.203 4.45.648.649 1.499.973 2.349.973 1.71 0 2.337-.961 4.473-3.096 0 0 2.123-2.123 2.124-2.124 1.297-1.297 1.297-3.401 0-4.698-1.22-1.22-3.144-1.278-4.45-.203l-3.685-3.685c4.349-5.259 7.187-11.81 7.863-18.99h5.215c.163 1.683 1.565 3.004 3.29 3.004 1.834 0 3.322-1.487 3.322-3.322v-6.007c0-1.835-1.487-3.323-3.322-3.323z" fill="#6bdddd"/></g></g><g><g><circle cx="58.15" cy="153.316" fill="#4671c6" r="26.692"/></g></g><g><g><g><circle cx="53.005" cy="147.251" fill="#e0ebfc" r="9.873"/></g></g><g><g><circle cx="67.675" cy="163.761" fill="#e0ebfc" r="5.493"/></g></g></g><g><g><path d="m77.395 147.804c-1.168 1.168-3.06 1.168-4.228 0l-4.228-4.228c-1.168-1.167-1.168-3.06 0-4.228 1.168-1.168 3.06-1.168 4.228 0l4.228 4.228c1.168 1.167 1.168 3.06 0 4.228z" fill="#a4c9ff"/></g></g><g><g><path d="m50.641 168.946c-1.168 1.168-3.06 1.168-4.228 0l-4.228-4.228c-1.168-1.167-1.168-3.06 0-4.228 1.168-1.167 3.06-1.167 4.228 0l4.228 4.228c1.168 1.168 1.168 3.061 0 4.228z" fill="#f9a7a7"/></g></g><g><g><path d="m61.153 202.017h-6.007c-2.935 0-5.322-2.388-5.322-5.322 0-2.099 1.209-3.92 3.004-4.78v-1.949c-6.12-.879-11.878-3.263-16.832-6.969l-1.376 1.376c.661 1.877.228 4.019-1.257 5.503-1.004 1.005-2.341 1.559-3.763 1.559s-2.759-.554-3.764-1.559l-4.247-4.248c-1.005-1.004-1.56-2.341-1.56-3.763 0-1.421.553-2.758 1.558-3.763 1.486-1.485 3.628-1.917 5.506-1.256l1.376-1.377c-3.706-4.954-6.09-10.711-6.969-16.831h-1.949c-.859 1.795-2.681 3.003-4.78 3.003-2.935 0-5.322-2.388-5.322-5.322v-6.007c0-2.935 2.388-5.322 5.322-5.322 2.1 0 3.92 1.208 4.78 3.003h1.949c.879-6.12 3.263-11.876 6.969-16.831l-1.376-1.376c-1.901.673-4.079.168-5.505-1.256-2.075-2.076-2.074-5.453.001-7.527l2.122-2.122c.012-.012.024-.024.037-.036l2.088-2.089c1.006-1.005 2.342-1.559 3.764-1.559 1.423 0 2.759.554 3.764 1.559 1.483 1.483 1.917 3.626 1.256 5.503l1.376 1.376c4.954-3.706 10.712-6.09 16.832-6.969v-1.949c-1.795-.86-3.004-2.681-3.004-4.78 0-2.935 2.388-5.322 5.322-5.322h6.007c2.935 0 5.322 2.387 5.322 5.322 0 2.099-1.209 3.92-3.004 4.78v1.949c6.12.879 11.877 3.263 16.831 6.969l1.377-1.376c-.661-1.877-.228-4.02 1.257-5.504 2.074-2.073 5.45-2.076 7.526 0l4.247 4.248c2.075 2.076 2.074 5.453-.001 7.527-1.423 1.424-3.604 1.93-5.503 1.256l-1.376 1.376c3.706 4.954 6.09 10.711 6.969 16.831h1.949c.86-1.795 2.681-3.003 4.78-3.003 2.935 0 5.322 2.388 5.322 5.322v6.007c0 2.935-2.388 5.322-5.322 5.322-2.1 0-3.921-1.208-4.78-3.003h-1.949c-.879 6.12-3.263 11.876-6.969 16.831l1.377 1.377c1.876-.662 4.02-.228 5.503 1.256 2.074 2.074 2.075 5.45 0 7.526l-4.247 4.248c-1.006 1.006-2.343 1.559-3.764 1.559-1.422 0-2.758-.554-3.763-1.559-1.484-1.484-1.918-3.626-1.257-5.503l-1.377-1.376c-4.954 3.706-10.711 6.09-16.831 6.969v1.949c1.795.86 3.004 2.681 3.004 4.78.002 2.934-2.386 5.322-5.321 5.322zm-25.316-23.69c.451 0 .903.151 1.274.459 5.113 4.229 11.304 6.792 17.904 7.412 1.027.097 1.813.959 1.813 1.991v5.215c0 1.03-.782 1.892-1.808 1.991-.682.066-1.196.625-1.196 1.299 0 .729.593 1.322 1.322 1.322h6.007c.729 0 1.322-.593 1.322-1.322 0-.675-.515-1.233-1.196-1.299-1.025-.099-1.808-.961-1.808-1.991v-5.215c0-1.032.785-1.895 1.813-1.991 6.6-.621 12.79-3.184 17.903-7.412.794-.657 1.958-.603 2.688.126l3.686 3.686c.729.728.784 1.891.129 2.686-.435.528-.403 1.287.074 1.764.5.499 1.37.499 1.87-.001l4.247-4.247c.515-.516.515-1.354-.001-1.87-.478-.479-1.236-.507-1.764-.073-.795.654-1.957.599-2.686-.13l-3.685-3.685c-.729-.729-.784-1.894-.127-2.688 4.228-5.113 6.791-11.304 7.412-17.903.097-1.027.959-1.813 1.991-1.813h5.215c1.03 0 1.892.783 1.991 1.808.065.682.624 1.195 1.299 1.195.729 0 1.322-.593 1.322-1.322v-6.007c0-.729-.593-1.322-1.322-1.322-.675 0-1.233.514-1.299 1.195-.1 1.025-.961 1.808-1.991 1.808h-5.215c-1.032 0-1.895-.785-1.991-1.813-.621-6.6-3.185-12.791-7.413-17.903-.657-.795-.603-1.96.127-2.689l3.686-3.685c.729-.729 1.891-.783 2.686-.13.551.453 1.307.384 1.763-.072.517-.516.517-1.355.001-1.871l-4.246-4.247c-.516-.514-1.354-.517-1.87 0-.478.478-.509 1.236-.073 1.765.654.795.599 1.958-.13 2.686l-3.686 3.686c-.73.729-1.895.785-2.688.126-5.113-4.228-11.304-6.792-17.903-7.413-1.027-.097-1.813-.959-1.813-1.991v-5.215c0-1.03.782-1.892 1.808-1.991.682-.066 1.196-.625 1.196-1.299 0-.729-.593-1.322-1.322-1.322h-6.007c-.729 0-1.322.593-1.322 1.322 0 .675.515 1.233 1.196 1.299 1.025.099 1.808.96 1.808 1.991v5.215c0 1.032-.785 1.895-1.813 1.991-6.601.621-12.791 3.185-17.904 7.413-.794.657-1.959.603-2.688-.127l-3.685-3.685c-.729-.729-.784-1.891-.13-2.686.436-.529.404-1.287-.073-1.764-.25-.25-.581-.387-.935-.387-.354 0-.686.137-.936.387l-2.122 2.123c-.012.012-.024.024-.037.037l-2.088 2.088c-.516.516-.516 1.354-.001 1.87.453.453 1.219.523 1.766.073.795-.653 1.956-.599 2.686.13l3.685 3.685c.729.729.784 1.894.127 2.688-4.228 5.113-6.791 11.304-7.412 17.903-.097 1.027-.959 1.813-1.991 1.813h-5.215c-1.03 0-1.892-.783-1.991-1.808-.065-.682-.624-1.195-1.299-1.195-.729 0-1.322.593-1.322 1.322v6.007c0 .729.593 1.322 1.322 1.322.675 0 1.233-.514 1.299-1.195.1-1.025.961-1.808 1.991-1.808h5.215c1.032 0 1.895.785 1.991 1.813.621 6.599 3.185 12.79 7.412 17.903.657.795.603 1.959-.127 2.688l-3.685 3.686c-.729.729-1.892.784-2.687.129-.527-.435-1.286-.404-1.765.074-.515.515-.515 1.354.001 1.869l4.247 4.249c.5.499 1.371.5 1.869 0 .479-.478.51-1.236.075-1.764-.655-.795-.6-1.958.129-2.686l3.685-3.685c.39-.391.901-.588 1.415-.588z" fill="#3762cc"/></g></g></g></g><g><g><g><path d="m229.194 114.717c-3.489 0-6.318-2.829-6.318-6.318v-10.93c0-2.326-1.886-4.212-4.212-4.212h-87.927c-2.326 0-4.212 1.886-4.212 4.212v10.929c0 3.489-2.829 6.318-6.318 6.318h-11.144c-2.326 0-4.212 1.886-4.212 4.212v49.911c0 16.879 5.246 33.342 15.013 47.108 8.992 12.674 21.422 22.511 35.825 28.347l19.011 7.706 19.013-7.705c14.402-5.837 26.833-15.673 35.825-28.347 9.767-13.767 15.013-30.229 15.013-47.108v-49.911c0-2.326-1.886-4.212-4.212-4.212z" fill="#4671c6"/></g></g><g><g><path d="m161.224 231.214c-11.815-4.788-21.96-12.816-29.337-23.214-8.043-11.337-12.294-24.677-12.294-38.578v-39.38h.614c11.613 0 21.06-9.448 21.06-21.06v-.399h66.867v.399c0 11.613 9.447 21.06 21.06 21.06h.614v39.38c0 13.902-4.251 27.242-12.294 38.578-7.377 10.399-17.523 18.426-29.339 23.215l-13.475 5.461z" fill="#e0ebfc"/></g></g><g><g><path d="m208.792 160.651h-22.113v-22.113c0-2.326-1.886-4.212-4.212-4.212h-15.532c-2.326 0-4.212 1.886-4.212 4.212v22.113h-22.113c-2.326 0-4.212 1.886-4.212 4.212v15.532c0 2.326 1.886 4.212 4.212 4.212h22.113v22.113c0 2.326 1.886 4.212 4.212 4.212h15.532c2.326 0 4.212-1.886 4.212-4.212v-22.113h22.113c2.326 0 4.212-1.886 4.212-4.212v-15.532c0-2.327-1.886-4.212-4.212-4.212z" fill="#f9a7a7"/></g></g><g><g><path d="m173.949 253.854-19.013-7.705c-14.784-5.992-27.476-16.035-36.704-29.044-10.063-14.184-15.382-30.874-15.382-48.266v-49.911c0-3.425 2.787-6.212 6.212-6.212h11.145c2.381 0 4.317-1.937 4.317-4.318v-10.929c0-3.425 2.787-6.212 6.213-6.212h87.927c3.425 0 6.212 2.787 6.212 6.212v10.929c0 2.381 1.938 4.318 4.318 4.318h11.145c3.425 0 6.212 2.787 6.212 6.212v49.911c0 17.392-5.318 34.082-15.382 48.266-9.229 13.01-21.922 23.053-36.705 29.044l-19.013 7.705c-.48.195-1.021.195-1.502 0zm-64.887-137.137c-1.22 0-2.212.992-2.212 2.212v49.911c0 16.558 5.063 32.447 14.644 45.951 8.786 12.385 20.87 21.947 34.944 27.651l18.262 7.4 18.262-7.4c14.073-5.704 26.157-15.266 34.945-27.651 9.58-13.504 14.644-29.394 14.644-45.951v-49.911c0-1.22-.992-2.212-2.212-2.212h-11.145c-4.587 0-8.318-3.731-8.318-8.318v-10.93c0-1.22-.992-2.212-2.212-2.212h-87.927c-1.22 0-2.213.992-2.213 2.212v10.929c0 4.587-3.731 8.318-8.317 8.318h-11.145z" fill="#3762cc"/></g></g><g><g><path d="m174.7 238.675c-.637 0-13.637-5.368-14.228-5.607-12.17-4.932-22.619-13.2-30.217-23.911-8.284-11.676-12.663-25.417-12.663-39.735v-39.38c0-1.104.896-2 2-2h.614c10.51 0 19.061-8.55 19.061-19.061v-.399c0-1.104.896-2 2-2h66.866c1.104 0 2 .896 2 2v.399c0 10.51 8.551 19.061 19.061 19.061h.614c1.104 0 2 .896 2 2v39.38c0 14.317-4.379 28.058-12.663 39.735-7.6 10.711-18.049 18.979-30.219 23.911-.589.239-13.589 5.607-14.226 5.607zm-12.725-9.314 12.726 5.156 12.725-5.156c11.461-4.645 21.302-12.431 28.459-22.518 7.801-10.998 11.925-23.938 11.925-37.421v-37.422c-11.543-.687-20.827-9.903-21.62-21.418h-62.976c-.793 11.515-10.077 20.731-21.62 21.418v37.421c0 13.485 4.124 26.425 11.925 37.421 7.155 10.087 16.995 17.874 28.456 22.519z" fill="#3762cc"/></g></g></g></g></svg>